<?xml version="1.0"?>
<svg xmlns="http://www.w3.org/2000/svg" xmlns:xlink="http://www.w3.org/1999/xlink" xmlns:svgjs="http://svgjs.com/svgjs" version="1.1" width="512" height="512" x="0" y="0" viewBox="0 0 64 64" style="enable-background:new 0 0 512 512" xml:space="preserve" class=""><g><g xmlns="http://www.w3.org/2000/svg"><path d="m53.421 11.796c-.814-1.492-1.913-2.806-3.222-3.873.695-2.128.988-3.948.665-5.161-.237-.892-.753-1.318-1.144-1.52-1.572-.811-4.048.469-7.343 3.776-.126-.002-.249-.018-.377-.018-.751 0-1.482.078-2.199.201-3.38-3.439-5.913-4.785-7.522-3.957-.391.201-.906.628-1.144 1.52-.394 1.479.121 3.856 1.175 6.601-.662.743-1.251 1.552-1.731 2.432-6.351.971-9.579 2.552-9.579 4.703 0 2.272 3.747 3.669 8.36 4.487.154.65.351 1.283.598 1.892-1.95 3.982-4.526 10.411-1.679 11.878.314.162.658.238 1.027.238 2.001 0 4.731-2.239 7.392-5.137 1.621.728 3.413 1.142 5.302 1.142 1.334 0 2.621-.203 3.834-.578 2.489 2.616 4.992 4.573 6.86 4.573.368 0 .713-.076 1.027-.238 2.383-1.227.977-5.921-.734-9.839.755-1.194 1.319-2.517 1.653-3.93 4.613-.819 8.36-2.216 8.36-4.488 0-2.151-3.228-3.732-9.579-4.704zm-.421 6.204c0 .426-.03.844-.077 1.257-2.397.363-5.307.635-8.749.716 2.068-3.263 4.005-6.86 5.285-10.035 2.171 2.011 3.541 4.876 3.541 8.062zm-4.195-14.979c.033.018.087.104.127.258.179.67.025 1.871-.452 3.469-1.096-.634-2.29-1.111-3.556-1.403 2.48-2.243 3.674-2.427 3.881-2.324zm-.99 5.659c-1.109 2.889-2.996 6.626-5.705 10.813-.113.174-.223.333-.335.504-.534-.001-1.052-.009-1.563-.019-.108-.164-.214-.317-.322-.485-2.359-3.648-4.094-6.953-5.237-9.656 1.95-1.757 4.521-2.837 7.347-2.837 2.136 0 4.125.622 5.815 1.68zm-14.747-5.402c.04-.153.094-.24.127-.258.223-.113 1.563.11 4.37 2.775-1.344.49-2.587 1.187-3.683 2.067-.76-2.163-1.032-3.766-.814-4.584zm4.712 16.622c-2.568-.123-4.796-.354-6.702-.643-.048-.413-.078-.831-.078-1.257 0-2.455.819-4.718 2.184-6.55 1.232 2.753 2.867 5.716 4.596 8.45zm-14.78-3.4c0-.384 1.629-1.608 6.643-2.519-.413 1.267-.643 2.616-.643 4.019 0 .307.025.608.046.91-4.007-.791-6.046-1.822-6.046-2.41zm16.12 5.446c.213.313.432.631.662.959-1.238 1.715-2.418 3.193-3.521 4.462-2.229-1.371-3.94-3.505-4.746-6.045 2.558.345 5.236.538 7.605.624zm-9.925 11.033c-.378-.195-.513-2.515 1.928-7.881.985 1.504 2.27 2.79 3.774 3.776-2.932 3.096-5.079 4.427-5.702 4.105zm12.805-3.979c-1.377 0-2.691-.266-3.907-.73 1.018-1.201 2-2.454 2.907-3.679 1.028 1.389 2.152 2.817 3.315 4.159-.747.161-1.521.25-2.315.25zm10.805 3.979c-.571.294-2.425-.804-4.987-3.371 1.427-.718 2.701-1.69 3.768-2.859 1.707 4.237 1.523 6.074 1.219 6.23zm-6.431-4.891c-1.276-1.414-2.678-3.135-4.156-5.184.218-.311.425-.612.628-.91 2.786-.032 6.313-.224 9.638-.673-.964 3.039-3.215 5.507-6.11 6.767zm8.58-9.178c.021-.302.046-.603.046-.91 0-1.403-.23-2.752-.643-4.019 5.014.911 6.643 2.135 6.643 2.519 0 .588-2.039 1.619-6.046 2.41z" fill="#050254" data-original="#000000" style="" class=""/><path d="m50 47h-13c-1.103 0-2-.897-2-2s.897-2 2-2h2c1.779 0 3.289-1.195 3.801-2.819l-1.951-.436c-.299.733-1.017 1.255-1.85 1.255h-2c-2.206 0-4 1.794-4 4s1.794 4 4 4h13c1.654 0 3 1.346 3 3s-1.346 3-3 3h-27v2h27c2.757 0 5-2.243 5-5s-2.243-5-5-5z" fill="#050254" data-original="#000000" style="" class=""/><path d="m23 38.567v-17.303c-2.21-1.012-3.739-2.389-3.97-4.263l-.03-.001h-10v-2h10l.273.004c.566-1.464 1.963-2.526 3.727-3.312v-2.168c-2.336-1.625-5.153-2.524-8-2.524h-8v30.729c2.171-.484 4.393-.729 6.615-.729 3.212 0 6.362.53 9.385 1.567zm-10-27.567h6v2h-6zm-4 0h2v2h-2zm10 22h-2v-2h2zm-9-13h8v8h-8zm1 13h-2v-2h2zm2-2h2v2h-2z" fill="#050254" data-original="#000000" style="" class=""/><path d="m27 44v-1h4.35c.73-2.056 2.548-3.595 4.76-3.927-3.99-.238-8.01.362-11.739 1.855l-.417.167-.401-.201c-5.225-2.083-11.221-2.444-16.817-1.048l-1.736.434v-31.28h-2v34h18v1c0 1.654 1.346 3 3 3s3-1.346 3-3z" fill="#050254" data-original="#000000" style="" class=""/><path d="m30.054 8.965c-.178-.52-.333-1.033-.472-1.539-1.626.413-3.179 1.118-4.582 2.096v1.435c1.405-.433 2.912-.75 4.355-.992.219-.344.454-.676.699-1z" fill="#050254" data-original="#000000" style="" class=""/><path d="m27.788 22.762c-.974-.209-1.91-.453-2.788-.735v16.558c5.127-1.755 10.689-2.041 16-.855v-4.772c-1.303-.089-2.561-.342-3.754-.742-2.648 2.686-5.493 4.779-7.94 4.78-.697 0-1.351-.155-1.943-.461-3.288-1.693-3.146-6.205.429-13.761-.001-.005-.003-.008-.004-.012z" fill="#050254" data-original="#000000" style="" class=""/><path d="m18 53h1.974c-.914-1.207-2.348-2-3.974-2h-3v4h2.184c.414-1.161 1.514-2 2.816-2z" fill="#050254" data-original="#000000" style="" class=""/><path d="m15.184 57h-2.184v4h3c1.627 0 3.061-.793 3.974-2h-1.974c-1.302 0-2.402-.839-2.816-2z" fill="#050254" data-original="#000000" style="" class=""/><path d="m18 55c-.552 0-1 .448-1 1s.448 1 1 1h2.899c.066-.323.101-.658.101-1s-.035-.677-.101-1z" fill="#050254" data-original="#000000" style="" class=""/><path d="m3 54v4c0 1.654 1.346 3 3 3h5v-10h-5c-1.654 0-3 1.346-3 3z" fill="#050254" data-original="#000000" style="" class=""/></g></g></svg>
