<?xml version="1.0"?>
<svg xmlns="http://www.w3.org/2000/svg" xmlns:xlink="http://www.w3.org/1999/xlink" xmlns:svgjs="http://svgjs.com/svgjs" version="1.1" width="512" height="512" x="0" y="0" viewBox="0 0 512 512" style="enable-background:new 0 0 512 512" xml:space="preserve" class=""><g><g xmlns="http://www.w3.org/2000/svg"><path d="m464.44 482h-68.478c-49.657-198.633-16.566-66.265-72.678-290.72h78.157v17c0 8.284 6.716 15 15 15s15-6.716 15-15v-32c0-8.284-6.716-15-15-15h-100.657l-17.233-68.934c8.374-9.79 13.449-22.483 13.449-36.346 0-30.878-25.122-56-56-56s-56 25.122-56 56c0 13.863 5.075 26.556 13.449 36.346l-17.233 68.934h-99.776c-8.284 0-15 6.716-15 15v32c0 8.284 6.716 15 15 15s15-6.716 15-15v-17h77.277c-19.98 79.923-48.185 192.745-72.678 290.72h-67.599c-8.284 0-15 6.716-15 15s6.716 15 15 15h416c8.284 0 15-6.716 15-15s-6.716-15-15-15zm-273.45-176.118 43.261 39.304-70.641 70.217zm8.258-33.031 4.462-17.851h104.58l4.463 17.851-56.753 51.562zm121.762 33.031 27.381 109.525-70.644-70.22zm-80.968-196.212c10.428 3.106 21.485 3.107 31.917 0l12.902 51.609h-57.721zm52.318 81.61 8.43 33.72h-89.58l8.43-33.72zm-142.821 280.412 106.462-105.823 106.46 105.819 2.577 10.312h-218.076z" fill="#050254" data-original="#000000" style=""/><path d="m352.12 108.761c6.863 4.575 16.185 2.763 20.801-4.161 21.302-31.953.879-63.321 0-64.641-4.596-6.894-13.909-8.755-20.801-4.161-6.893 4.596-8.756 13.909-4.161 20.801.104.157 10.333 15.859 0 31.359-4.595 6.894-2.732 16.207 4.161 20.803z" fill="#050254" data-original="#000000" style=""/><path d="m414.18 62.053c3.652 14.704.472 28.45-9.453 40.856-5.175 6.469-4.126 15.909 2.342 21.083 6.441 5.153 15.886 4.155 21.083-2.342 16.18-20.225 21.291-43.821 14.781-68.235-4.677-17.539-13.76-29.23-14.781-30.506-5.175-6.468-14.643-7.555-21.112-2.378-6.469 5.175-7.547 14.578-2.372 21.047.066.083 6.531 8.473 9.512 20.475z" fill="#050254" data-original="#000000" style=""/><path d="m508.814 47.806c-5.616-23.584-16.908-39.575-17.386-40.245-4.815-6.741-14.202-8.329-20.943-3.513-6.741 4.815-8.321 14.158-3.506 20.899 1.368 1.95 33.119 48.299.037 94.614-7.123 9.973.128 23.72 12.193 23.72 4.68 0 9.291-2.184 12.219-6.282 18.95-26.531 24.963-57.374 17.386-89.193z" fill="#050254" data-original="#000000" style=""/><path d="m96.45 127.28c12.389 0 19.626-14.468 11.703-24.371-9.925-12.406-13.106-26.152-9.453-40.856 2.935-11.818 9.249-20.134 9.503-20.465 5.118-6.467 4.055-15.862-2.393-21.021-6.47-5.176-15.909-4.126-21.083 2.342-1.021 1.275-10.104 12.967-14.781 30.506-6.51 24.415-1.399 48.01 14.781 68.235 2.963 3.704 7.322 5.631 11.723 5.63z" fill="#050254" data-original="#000000" style=""/><path d="m44.984 119.561c-33.073-46.301-1.351-92.636.036-94.613 4.772-6.737 3.202-16.071-3.523-20.875-6.742-4.815-16.109-3.253-20.925 3.487-.478.67-11.771 16.661-17.386 40.246-7.576 31.82-1.564 62.662 17.386 89.193 2.928 4.099 7.539 6.283 12.219 6.282 12.063 0 19.318-13.744 12.193-23.72z" fill="#050254" data-original="#000000" style=""/><path d="m159.88 108.761c-6.863 4.575-16.185 2.763-20.801-4.161-21.302-31.953-.879-63.321 0-64.641 4.596-6.894 13.909-8.755 20.801-4.161 6.893 4.596 8.756 13.909 4.161 20.801-.104.157-10.333 15.859 0 31.359 4.595 6.894 2.732 16.207-4.161 20.803z" fill="#050254" data-original="#000000" style=""/></g></g></svg>
