<?xml version="1.0"?>
<svg xmlns="http://www.w3.org/2000/svg" xmlns:xlink="http://www.w3.org/1999/xlink" xmlns:svgjs="http://svgjs.com/svgjs" version="1.1" width="512" height="512" x="0" y="0" viewBox="0 0 64 64" style="enable-background:new 0 0 512 512" xml:space="preserve" class=""><g><path xmlns="http://www.w3.org/2000/svg" d="m55 55h6v6h-6z" fill="#050254" data-original="#000000" style=""/><path xmlns="http://www.w3.org/2000/svg" d="m48 21v-18h-24v.025c-11.354.509-20.466 9.621-20.975 20.975h20.975v-19h2v17.586l13.832-13.833c-1.673-1.528-3.587-2.796-5.673-3.753h11.841v13.426c-.971-3.105-2.612-5.914-4.753-8.258l-13.833 13.832h14.758l3.828-3.828v2.828l-38 38h45v-8h8v-45zm-27-7h-2v3.764l.618 1.236h.382v2h-1.618l-1.382-2.764v-4.236h-2v7h-2v-6.586l-1.293 1.293-1.414-1.414 2.293-2.293h8.414z" fill="#050254" data-original="#000000" style=""/><path xmlns="http://www.w3.org/2000/svg" d="m34 26v6.172l3-3v-3.172z" fill="#050254" data-original="#000000" style=""/><path xmlns="http://www.w3.org/2000/svg" d="m29 26v11.172l3-3v-8.172z" fill="#050254" data-original="#000000" style=""/><path xmlns="http://www.w3.org/2000/svg" d="m39 27.172 1.172-1.172h-1.172z" fill="#050254" data-original="#000000" style=""/><path xmlns="http://www.w3.org/2000/svg" d="m7 37.642v-11.642h-3.975c.194 4.323 1.637 8.319 3.975 11.642z" fill="#050254" data-original="#000000" style=""/><path xmlns="http://www.w3.org/2000/svg" d="m14 26v18.049c.957.554 1.959 1.037 3 1.444v-19.493z" fill="#050254" data-original="#000000" style=""/><path xmlns="http://www.w3.org/2000/svg" d="m24 26v16.172l3-3v-13.172z" fill="#050254" data-original="#000000" style=""/><path xmlns="http://www.w3.org/2000/svg" d="m9 26v14.091c.917.972 1.92 1.862 3 2.654v-16.745z" fill="#050254" data-original="#000000" style=""/><path xmlns="http://www.w3.org/2000/svg" d="m22 26h-3v20.154c.268.076.543.136.815.202l2.185-2.184z" fill="#050254" data-original="#000000" style=""/></g></svg>
